<svg xmlns="http://www.w3.org/2000/svg" viewBox="0 0 512 512"><style>.H{fill:#c3d2ac}.I{fill:#3cbf96}</style><ellipse cx="256" cy="329.7" rx="199.9" ry="45" fill="#b6d2da"/><path d="M386 339H121.5l.1-6.1.5-6.6c1.1-11.9 3.8-23.3 7.7-34.1.6-1.7 1.3-3.3 2-5l2.5-5.8 1.2-2.4c2.5-5 5.2-9.8 8.3-14.3 23.7-35.8 64.1-59.4 110-59.4 73 .1 132.2 59.9 132.2 133.7z" fill="#5ba26f"/><path d="M382.3 188.5c.7.4 3.5 2.4 4.2 3.6.6 2.1.2 3.7-3.2 2.8-3.1-.8-6.2-4-4.6-6.6.7-1.9 2.5 0 3.6.2zm4.6-49.2c.5.6 2.5 3.4 2.7 4.8-.2 2.2-1.1 3.6-4 1.6-2.6-1.8-4.5-5.9-2.1-7.7 1.4-1.7 2.4.7 3.4 1.3z" class="I"/><path d="M403.8 160.7c.6-.5 3.4-2.5 4.8-2.7 2.1.1 3.6 1 1.6 3.9-1.8 2.6-5.9 4.5-7.8 2.2-1.6-1.3.8-2.4 1.4-3.4z" class="H"/><path d="M428 251.4c.6-.5 3.6-2.4 5.1-2.4 2.2.3 3.7 1.3 1.5 4.2-1.9 2.6-6.3 4.1-8 1.7-1.8-1.6.7-2.5 1.4-3.5z" class="I"/><path d="M118.4 268.1c-.6.6-3.2 2.9-4.6 3.2-2.2 0-3.8-.8-2.1-3.9 1.5-2.9 5.6-5 7.7-2.8 1.9 1.2-.4 2.4-1 3.5z" class="H"/><path d="M426.3 203.1c.2-.8 1.3-4.1 2.4-5 1.9-1.1 3.7-1.2 3.8 2.4.1 3.3-2.3 7.1-5.2 6.3-2.2-.2-.9-2.4-1-3.7z" class="I"/><path d="M430.9 216.6c.5-.6 3-3.1 4.3-3.5 2.2-.2 3.9.4 2.4 3.7-1.3 3-5.1 5.5-7.4 3.5-1.9-1.1.3-2.6.7-3.7z" class="H"/><path d="M404.6 182.1c.6-.6 3.3-2.7 4.7-2.9 2.2.1 3.8 1 2 4.1-1.6 2.9-5.8 4.8-7.8 2.4-1.8-1.4.5-2.5 1.1-3.6z" class="I"/><path d="M62.9 207.8c.7.4 3.5 2.4 4.2 3.6.6 2.1.2 3.7-3.2 2.8-3.1-.8-6.2-4-4.6-6.6.7-1.9 2.5 0 3.6.2z" class="H"/><path d="M61.1 240.8c.8.3 3.9 1.8 4.7 3 .7 2.3.5 4.1-3.2 3.9-3.5-.1-6.8-3.3-5.3-6.2.5-2.3 2.4-.8 3.8-.7z" class="I"/><path d="M444.4 277c.6-.5 3.4-2.5 4.8-2.7 2.1.1 3.6 1 1.6 3.9-1.8 2.6-5.9 4.5-7.8 2.2-1.6-1.3.8-2.4 1.4-3.4z" class="H"/><path d="M382.3 242c.7.2 4 1.5 4.9 2.6 1 1.9 1.1 3.6-2.5 3.5-3.2 0-7-2.5-6-5.3.3-2.2 2.5-.8 3.6-.8zm45 38.2c.4.7 1.9 3.8 1.9 5.2-.5 2.1-1.6 3.4-4.2.9-2.3-2.1-3.5-6.5-.8-8 1.6-1.4 2.2 1.1 3.1 1.9z" class="I"/><path d="M411.8 220.2c.6.5 2.9 3.1 3.2 4.5.1 2.2-.7 3.7-3.8 2-2.8-1.4-5.1-5.3-3-7.4 1.3-1.8 2.6.4 3.6.9zm-24.7-60.1c2.2-2-2.6-5.6-4.8-5.9-2.4-.8-3.8.3-4.5 1.8-.2 1.2 7.4 5 9.3 4.1z" class="H"/><path d="M86.4 227.1c.6-.6 3.3-2.7 4.7-2.9 2.2.1 3.8 1 2 4.1-1.6 2.9-5.8 4.8-7.8 2.4-1.8-1.4.5-2.5 1.1-3.6z" class="I"/><path d="M66.8 260.1c8.7 3.7 3.3 11-3.3 4.9-2-2.2-1.4-4.2.3-5.7.3-.1 2.8.8 3 .8z" class="H"/><path d="M391.5 146.7l2.7 192.2 7.3-.9-2.4-187.7 1.3-10.1-8.9 6.5zm27.7 65.1L404.6 338l7.1 1.2L426.2 216l2.1-6.3-9.1 2.1zM77.3 201.2l14.6 126.1-7.1 1.2-14.6-123.2-2.1-6.3 9.2 2.2zm357.4 70.5l-15.9 67.1 6.1 3.6 15.7-65.4 2-2.8-7.9-2.5zM107.4 258l-2.5 68.9-6.9 1.9 2.2-67.2-1.2-3.2 8.4-.4z" fill="#dab773"/><path d="M268.3 254.4c.9 1.9 3 .9 3.4 2.5.6.4 1.7-.3 2.2.6 1.8-1.1 2.9-.1 4.2.8 5.2.8 5.1 3.4 8.3 4.7.1 2.9 3.7 1.4 4.9 5.5 1.9-1.8 1.2 2.2 3.1 1.6.9 1.6-1.6 3.2.8 3.7 1.9 2.6.7 6.8 3.5 9.2-1.3 2.5-3 5.2-2.6 8.2-3.4.3-2.8 4.7-4.2 6.7-2.3-1.2-1.2.9-2.8 1.7-1.7.6-1.1 2.1-1.7 3.3-.5.5-.7-.7-1.2-.3-1.5.4-1.7.6-1.6 2.2-1.6-.1-1.4.7-1.5 1.9-1.3.2-2.2 0-1.9 2-3.7 0-1.5 2-5 .6-1.5.8-2.5 2.5-4.2.5-3.4 3.5-8.3 3.5-12.6 3.1 0 1.2-.8 2.2-1.3.5-.5 1.1-3.7 1.6-3.4-.5-6.3 0-12.2-2.8-19.3-1 .6-3.3-6.5-.6-6.6-3.3-2.4-.8-8.2.9-7.2-3.5-1.1.7-1.8-.7-2.6.2-.8-.2-1.9-1.6-2.6-2.3-1.1-.7-1.8-3.1-3-2.5.3-2.1-.4-2-2-2.3.1-1.4.3-2.4-1.5-2.5.8-3.2-4.5-5.4-1.1-7.7.3-2.5-.8-4.9 1-6.1-.9-.9-1.3-1.4-1-3 1.2-2.1 1.3-5.7 4-6.6 0-1.6-.1-3.3 2-4 .6-3.9 5-4.7 7.9-6 .8-1.4 1.5-2.2 3.4-1.8.5-1.4 1.2-2.2 2.7-2 1.9-1 3.4-2.9 5.4-3 2.3.4 2.8-1.9 4.4-.1.2-1 1.1-1.4 1.8-1.4 1.9-.4 4.4-.1 5.2-1.6.7.2 1.5 1 2.5.1 5 .2 11.1-.8 15.3.9 1.3.8 3.3 1.1 4.9 1zm-2.6 18.5c.3-3.2-3.1-3.7-5.4-4.4-6.9-3.1-15-1.4-20.1 2.9 0 1.2-1.2.2-1.5.8.1 1.1-.3 1.4-1.4 1.3-.3.3 0 1-.2 1.1-2 1 .1 3.6-1.9 4-.6 6.4.6 13.6 6.4 15.3-.4 3.9 5.4 2.2 6.8 4.9 5.7.4 10.8.4 16.1-1.4-.1-2.3 2.6-2.8 4.1-3.8.3-4.4 3.1-6.8 3-10.8-.6-2.8-1.8-5.2-3.3-7.8-1.8-.1-.4-2.7-2.6-2.1z" fill="#fff"/><path d="M265.7 272.9c2.2-.6.8 2 2.7 2 1.4 2.7 2.7 5 3.3 7.8.1 4-2.7 6.4-3 10.8-1.5 1.1-4.2 1.5-4.1 3.8-5.3 1.8-10.4 1.8-16.1 1.4-1.4-2.6-7.2-1-6.8-4.9-5.8-1.7-7-9-6.4-15.3 2-.3 0-3 1.9-4 .2-.2-.1-.8.2-1.1 1 0 1.4-.3 1.4-1.3.3-.6 1.5.4 1.5-.8 5.1-4.2 13.2-6 20.1-2.9 2.2.9 5.7 1.3 5.3 4.5z" fill="#060606"/><g class="H"><path d="M202.9 331.7c.2-2.7-2-4.4-3.4-6.3-3.9-4.7-6.2-11.2-11.1-14.9l-4.5-7.1c-3-5.2-9.7-7.1-11.8-12.8-2.8-3.7-7.8-6-10.2-9.9-.7-1.8-1.9-2.3-3.2-2.6L154 273c-.7-3.4-3.3-3.7-6.4-3.9-.7-1.1-1.6-2.2-2.6-3.7-.4-.2-.8-.4-1.2-.7-3 4.6-5.8 9.4-8.3 14.3.3-.1.7-.2.9-.3.8.8 1.4 1.4 2.3 2.2.3-.9.5-1.4.6-1.9 1.9 0 2.9 1.1 3.5 2.7-.8 2.1-.5 4.2-.9 6.6 1.1-.6 1.8-.9 2.8-1.4v1.2l6.6 5.7-1.4 2.8c1.4-.4 2.4-.6 3.6-.9.2-.6.6-1.2 1-2l1.9 2.2c-.8.5-1.3.9-2.1 1.5-.8 0-2.1-.8-2.7 1.1.6 1.9 6.3 6.5 3.1 7.8-.1-1.7-1.1-2.9-2.3-4a22.63 22.63 0 0 1-2 1.3c-.2-1.1-.3-2-.5-3.2l-2.3 1c-.2-1.9-.5-3.6-.8-5.8a19.28 19.28 0 0 1-1.5 1c-.7-1.7-1.4-3.3-2.2-5.1-.6-.1-1.4-.2-2.3-.4-.4-1-.7-1.9-1.1-3-.3.7-.4 1.1-.6 1.6-2.6-1.9-5.1-4.8-4.9-8.3-.9 1.9-1.7 3.8-2.5 5.8.3-.2.6-.5 1-.8-.5 3.4 3.8 8 6.8 8.8 3.3 0 4.2 3.8 6.3 5.8-1.7 4 2 5.6 3.5 8.3.7-.3 1.2-.6 1.8-.9 0 4.7 2 5 4.3 8.9.7-.1 1.4-.3 2.2-.5.1 1.1.1 2.1.2 3.2.6-.3 1.1-.5 1.8-.8-.1 1.2-.3 2.2-.4 3.2.1 0 .3-.1.5-.1l4.6 6.9c5.5-3.4-1.4-5.6 2.2-9.6.8.4 1.5.8 2.1 1.2 1.6-1 1.6-1 3.2-.4-.9.5-1.7.9-2.1 1.1v3c1.9 0 2.1-2 3.4-2.6l.6-3.5c2.9 1.1 3.8 3.5 5.2 5.8 4.5 3.6 7 8.7 10 13.5.2.4.5.7.7 1.1h4.2c-.1-.1-.2-.3-.3-.4-.7-3.1-.8-3.2-2.9-4.1v-2c-.5.3-.9.5-1.3.7v-1.6c-2-1.2-2-1.2-1.5-3.8-1.4-3-3.6-5.3-6.4-6.8v-2.3c-1.9-1.4-2.1-4.3-4.8-5.4l-1.6-2.8c-3.6-.2-2.2-3.1-4.7-3.6-1.1-4.5-3.5-8.1-7.2-11 .3-.5.6-.8.8-1.3 1.9.9 2 3.6 4.5 4.2.3.1.5.4.7.7 2.3 4.8 6.7 7.8 10.3 11.4.7 3.8 4.5 7.8 7.6 9.9.1.8.3 1.6.4 2.3 2.2 3.2 5 4.5 6.8 8.1 2.6.1 3.5 2.8 5.2 4.7-.2.3-.4.7-.6 1 .3.7.6 1.5 1 2.2h8.1c-1.3-2.4-3-4.9-5-7.2zm-55.7-54.9c1.6 2.6 5.6 3.1 1.8 5.5l-.9-2.1c-.4-.1-1-.2-1.6-.4l.7-3zm-4.2-1.1c.6-.4 1.2-.8 2-1.4.1 1.5 1.5 2.4-.2 3.7-.9-1-1.2-1.1-1.8-2.3zm8.8 16.1l-6.7-7.2c2.5.5 8.2 4.2 6.7 7.2zm2.9-4.9c1.3.2 2.4.3 3.7.5.4 2.2 1.6 3.5 3.1 5.2.3.1.9.2 1.5.3-2.7 5.3-6.1-4.2-8.3-6zm8.5 15.9c-2.3-.1-2.3-.1-3.2-1.9-2-.1-2-.1-2.3-3.6l5.5 5.5zm-7.1 4.1c1.2-.3 2.1-.6 3.2-.9.2 1.1-1.2 2.4.6 3.4 1-.1 2.2-1.7 3.4-.3-1 1.4-2 2.7-3.1 4.1-1.5-2.2-2.7-4.1-4.1-6.3zm7.7-2.2c.8.9 1.5 1.6 2.3 2.6-.2.4-.3.7-.4 1.1 3.2.7 4.2 3.7 6 6-1.8.6-2.8-.8-4.2-1.2-.6.3-1.3.6-2.4 1.1l1.5-3.6c-1.4-1.8-4.3-2.9-2.8-6zm1 15.1l-3.2-4.4c.1-.4.3-1 .5-1.6 1 0 6.2 5.4 2.7 6zm9 16.8l-.3-3c-2.9.9-3.8 1.5-6.2 3.5-.2-1.3-.4-2.1-.5-2.8l-.1-.1c-14.4-11.9-25.7-27.1-36.9-41.9-4 10.8-6.6 22.2-7.7 34.1l2.5.3.6 4.8c2.7 1.9 4.6 4.7 6.3 7.6H177c-.7-.8-1.5-1.8-2.2-2.7-.5 0-.8.1-1 .2zM142 324.7l.6-2.3c1.9-.3 1.8 1 2.1 2-.9 1.2-1.6 1.5-2.7.3zm9.2 7.7c-2.2-.3-2.3-.4-2-2.7 2 .7 2 .7 2 2.7zm-28.4 1.8c-.4-.4-.8-.9-1.2-1.3-.1 2-.1 4.1-.1 6.1h5.6c-1.3-1.7-2.7-3.3-4.3-4.8zm62.9 4.8h-.3c.1-.1.2-.1.3-.2-.1.1-.1.2 0 .2zm-4.4-5.8l-3 1.8c-.3-1.2-1.3-2-1-3.2.2-.2.4-.3.7-.5l.3 1.8c1.2-3.1-.1-4.5-3-4.2 1.2-1.7-1.2-3.4.5-5.3l3.5 3.1.2 3.3c1.2.5 1.8 1.6 1.8 3.2zm2.7 5.1c-.6-.2-1.2-.3-1.8-.5-.1.4-.2.7-.5 1.4-2.1-.8-3.4-1.3-1.9-4l2.8-1.2c.7 1.3 2.2 2.4 1.4 4.3z"/><path d="M170.3 334.8l-1.4-1.8-2.1 1.3c-.5-1.2-1.3-2.1-1-3.5.4.5.8.9 1.4 1.5l1-1.6c1.6 0 2.6 2 2.1 4.1z"/></g></svg>
